Coordinates
version=1
nRows=15
nColumns=46
inDegrees=yes

Units are S.I. units (second, meters, Newtons, ...)
Angles are in degrees.

endheader
time	pelvis_tilt	pelvis_list	pelvis_rotation	pelvis_tx	pelvis_ty	pelvis_tz	bb_angle	bb_tx	bb_ty	bb_tz	hip_flexion_r	hip_adduction_r	hip_rotation_r	knee_angle_r	knee_angle_r_beta	ankle_angle_r	subtalar_angle_r	mtp_angle_r	crank_angle_r	hip_flexion_l	hip_adduction_l	hip_rotation_l	knee_angle_l	knee_angle_l_beta	ankle_angle_l	subtalar_angle_l	mtp_angle_l	crank_angle_l	lumbar_extension	lumbar_bending	lumbar_rotation	arm_flex_r	arm_add_r	arm_rot_r	elbow_flex_r	pro_sup_r	wrist_flex_r	wrist_dev_r	arm_flex_l	arm_add_l	arm_rot_l	elbow_flex_l	pro_sup_l	wrist_flex_l	wrist_dev_l
      7.50500000	    -15.77668221	      0.84047021	     -4.53933656	      0.15013292	      1.14057665	     -0.24420526	      0.00000000	      0.50000000	      0.00000000	      0.25000000	     55.75396087	      0.55265482	      3.35066796	     47.39483281	      0.82719588	      6.53885200	     -7.12810323	      0.00000000	      0.00000000	     80.34349103	     -9.68563936	      2.50989654	    109.48740922	      1.91091578	    -18.48277225	    -11.04018752	      0.00000000	      0.00000000	    -63.05458882	     -1.53860502	     -0.65303562	     89.79474168	    -13.49451390	     31.30162753	     63.97135570	     24.19387225	      0.00000000	      0.00000000	     88.31144597	    -19.31164358	     24.90865917	     65.05662574	     39.86801705	      0.00000000	      0.00000000
      7.51000000	    -15.81086393	      1.32535651	     -4.19555990	      0.15034563	      1.14155747	     -0.24299405	      0.00000000	      0.50000000	      0.00000000	      0.25000000	     54.29952386	      0.05017476	      3.50427772	     45.66748751	      0.79704802	      6.29577919	     -7.07656421	      0.00000000	      0.00000000	     81.82576720	     -9.45848516	      2.36839284	    110.21445492	      1.92360512	    -19.39881523	    -10.60672267	      0.00000000	      0.00000000	    -63.04626915	     -2.04245904	     -1.36318005	     89.78683019	    -13.78415567	     31.20112874	     63.86384026	     24.21302453	      0.00000000	      0.00000000	     88.44338876	    -19.05680261	     24.97194979	     65.07939705	     39.89366233	      0.00000000	      0.00000000
      7.51500000	    -15.53896368	      1.64685516	     -4.01905212	      0.15084032	      1.14345127	     -0.24198052	      0.00000000	      0.50000000	      0.00000000	      0.25000000	     52.47345588	     -0.31422325	      3.51992882	     43.88814768	      0.76599268	      5.44432473	     -7.37493698	      0.00000000	      0.00000000	     82.92646454	     -9.46746614	      2.24783161	    110.85129552	      1.93472009	    -20.64089636	    -10.57968839	      0.00000000	      0.00000000	    -63.42618718	     -2.52970148	     -1.60095233	     89.78543732	    -14.34951343	     31.31359757	     63.63387879	     24.24603692	      0.00000000	      0.00000000	     88.72235130	    -18.52635903	     25.16674720	     64.90611133	     39.92033276	      0.00000000	      0.00000000
      7.52000000	    -15.63547466	      2.08623359	     -3.78133485	      0.15132274	      1.14455758	     -0.24105183	      0.00000000	      0.50000000	      0.00000000	      0.25000000	     51.16954954	     -0.86923508	      3.39509098	     42.37144476	      0.73952122	      5.15665780	     -7.06749039	      0.00000000	      0.00000000	     84.38178995	     -9.38928215	      2.06222413	    111.44408280	      1.94506618	    -21.28153321	    -10.20736400	      0.00000000	      0.00000000	    -63.43593471	     -3.02445502	     -2.19484947	     89.77386541	    -14.60504183	     31.23463676	     63.60261465	     24.27100900	      0.00000000	      0.00000000	     88.82217769	    -18.27537124	     25.22853041	     64.94390922	     39.93926476	      0.00000000	      0.00000000
      7.52500000	    -15.52295775	      2.43392612	     -3.48410570	      0.15176620	      1.14645016	     -0.24015788	      0.00000000	      0.50000000	      0.00000000	      0.25000000	     49.63098735	     -1.42272078	      3.17729472	     40.86186813	      0.71317414	      4.50928834	     -6.65125462	      0.00000000	      0.00000000	     85.56631135	     -9.27087825	      1.93813234	    111.87336485	      1.95255856	    -22.10383471	     -9.83631475	      0.00000000	      0.00000000	    -63.70769248	     -3.35441574	     -2.51299671	     89.77603082	    -15.04325796	     31.26402412	     63.46212859	     24.29596357	      0.00000000	      0.00000000	     88.97982929	    -17.91052367	     25.34633563	     65.05466686	     39.97315818	      0.00000000	      0.00000000
      7.53000000	    -15.44168666	      2.68519593	     -3.15324330	      0.15245842	      1.14808236	     -0.23954260	      0.00000000	      0.50000000	      0.00000000	      0.25000000	     48.18354956	     -2.00809153	      2.70402569	     39.54441455	      0.69018023	      4.13824797	     -6.08387839	      0.00000000	      0.00000000	     86.77149799	     -9.17110358	      1.85465092	    112.30595994	      1.96010877	    -22.65419260	     -9.49780992	      0.00000000	      0.00000000	    -63.93282245	     -3.63956066	     -2.77354980	     89.77221412	    -15.68871235	     31.40107727	     63.43777862	     24.37273629	      0.00000000	      0.00000000	     89.09108606	    -17.38872561	     25.52092425	     65.11752231	     39.99174132	      0.00000000	      0.00000000
      7.53500000	    -15.39480286	      2.98334891	     -2.82059291	      0.15290090	      1.14964061	     -0.23889095	      0.00000000	      0.50000000	      0.00000000	      0.25000000	     46.92220308	     -2.64020382	      2.22246300	     38.47016499	      0.67143104	      3.88075575	     -5.30411063	      0.00000000	      0.00000000	     87.95872968	     -9.02099560	      1.76124989	    112.66197483	      1.96632240	    -22.90286708	     -8.99555283	      0.00000000	      0.00000000	    -64.14426738	     -3.93004856	     -3.08754954	     89.76784591	    -16.28736818	     31.54878507	     63.48483494	     24.45963831	      0.00000000	      0.00000000	     89.19375004	    -16.90266755	     25.64604116	     65.18011050	     39.99101531	      0.00000000	      0.00000000
      7.54000000	    -15.43145136	      3.33834648	     -2.52808391	      0.15321902	      1.15103546	     -0.23765835	      0.00000000	      0.50000000	      0.00000000	      0.25000000	     45.87939258	     -3.20824671	      1.85151844	     37.61592771	      0.65652179	      3.58165107	     -4.83856728	      0.00000000	      0.00000000	     89.13833296	     -9.02188990	      1.52877784	    112.89660014	      1.97041739	    -23.02590914	     -8.63438175	      0.00000000	      0.00000000	    -64.24359248	     -4.29538028	     -3.56234940	     89.75965405	    -16.55013647	     31.53399569	     63.49370446	     24.49367173	      0.00000000	      0.00000000	     89.30695484	    -16.61018061	     25.72892911	     65.26269658	     40.00115847	      0.00000000	      0.00000000
      7.54500000	    -15.23008873	      3.72362838	     -1.95489868	      0.15341514	      1.15318695	     -0.23720274	      0.00000000	      0.50000000	      0.00000000	      0.25000000	     44.66863111	     -4.17117405	      0.97544313	     36.98962907	      0.64559082	      3.68838857	     -3.37597099	      0.00000000	      0.00000000	     89.92506291	     -8.66041199	      1.23952823	    112.93406473	      1.97107127	    -22.93707612	     -7.78094254	      0.00000000	      0.00000000	    -64.66744906	     -4.42454947	     -3.82661179	     89.75954840	    -17.61280612	     32.00548125	     63.79261001	     24.69159219	      0.00000000	      0.00000000	     89.39544474	    -15.84046489	     25.81171362	     65.31540660	     39.86953712	      0.00000000	      0.00000000
      7.55000000	    -15.34312731	      4.01166682	     -1.67328762	      0.15378528	      1.15442658	     -0.23663693	      0.00000000	      0.50000000	      0.00000000	      0.25000000	     43.92117390	     -4.75639208	      0.40817864	     36.52140933	      0.63741884	      3.23801946	     -2.99392428	      0.00000000	      0.00000000	     91.02262300	     -8.57294602	      1.03313671	    112.98035323	      1.97187915	    -23.01247358	     -7.43614414	      0.00000000	      0.00000000	    -64.71211039	     -4.69319304	     -4.21151465	     89.75037330	    -17.86034459	     32.02877572	     63.77811958	     24.70907494	      0.00000000	      0.00000000	     89.45521734	    -15.53824679	     25.90254662	     65.42409790	     39.86702227	      0.00000000	      0.00000000
      7.55500000	    -15.42736241	      4.23676152	     -1.18564361	      0.15418922	      1.15549322	     -0.23669580	      0.00000000	      0.50000000	      0.00000000	      0.25000000	     43.29795335	     -5.54762283	     -0.60657928	     36.45327110	      0.63622960	      3.21368914	     -1.73816815	      0.00000000	      0.00000000	     91.97499961	     -8.15512472	      0.93499734	    112.93240635	      1.97104232	    -22.64633925	     -6.61044316	      0.00000000	      0.00000000	    -64.78512055	     -4.71848819	     -4.31039207	     89.74822047	    -18.73414806	     32.48834409	     63.96261786	     24.85712789	      0.00000000	      0.00000000	     89.48232827	    -14.89969401	     26.01854121	     65.50823031	     39.74309042	      0.00000000	      0.00000000
      7.56000000	    -15.55503059	      4.48226746	     -0.78764253	      0.15447268	      1.15680388	     -0.23649516	      0.00000000	      0.50000000	      0.00000000	      0.25000000	     42.80338960	     -6.19471725	     -1.27066891	     36.43925557	      0.63598499	      2.81856059	     -1.32948592	      0.00000000	      0.00000000	     92.80193116	     -7.86687024	      0.69067483	    112.67440639	      1.96653937	    -22.41207532	     -6.32829168	      0.00000000	      0.00000000	    -64.83868715	     -4.81588256	     -4.65070677	     89.73904509	    -19.07078183	     32.56864718	     63.99850955	     24.89518292	      0.00000000	      0.00000000	     89.51738906	    -14.53465103	     26.09578486	     65.60388557	     39.71582388	      0.00000000	      0.00000000
      7.56500000	    -15.64394359	      4.77385819	     -0.29102664	      0.15462188	      1.15810640	     -0.23654174	      0.00000000	      0.50000000	      0.00000000	      0.25000000	     42.45655374	     -6.99026627	     -2.00826159	     36.83495159	      0.64289119	      2.67467354	     -0.67394266	      0.00000000	      0.00000000	     93.45649422	     -7.39861591	      0.40190832	    112.27336383	      1.95953986	    -22.00461273	     -5.84876575	      0.00000000	      0.00000000	    -64.93020547	     -4.82930925	     -4.91241706	     89.73639121	    -19.59564790	     32.73038760	     64.06672178	     24.95568871	      0.00000000	      0.00000000	     89.55378797	    -14.10071700	     26.13854350	     65.68767374	     39.65443239	      0.00000000	      0.00000000
      7.57000000	    -15.71846593	      5.04256229	      0.17287409	      0.15477816	      1.15931738	     -0.23671823	      0.00000000	      0.50000000	      0.00000000	      0.25000000	     42.19748418	     -7.78030756	     -2.78814836	     37.41350417	      0.65298883	      2.87081082	      0.38434663	      0.00000000	      0.00000000	     93.99766964	     -6.93467757	      0.11159521	    111.79937039	      1.95126711	    -21.49417980	     -5.35722398	      0.00000000	      0.00000000	    -65.07460192	     -4.93370798	     -4.71783080	     89.72880207	    -21.70585988	     33.83352794	     65.26168964	     25.58856328	      0.00000000	      0.00000000	     89.59724227	    -12.62043009	     25.79216269	     65.32789893	     38.76411339	      0.00000000	      0.00000000
      7.57500000	    -15.82911979	      5.20262414	      0.62846609	      0.15487285	      1.16051239	     -0.23672159	      0.00000000	      0.50000000	      0.00000000	      0.25000000	     42.07300121	     -8.35231360	     -3.32655131	     38.16452724	      0.66609666	      2.52385374	      0.37981089	      0.00000000	      0.00000000	     94.49443653	     -6.47282842	     -0.07516242	    111.19590274	      1.94073462	    -21.07803905	     -5.10284361	      0.00000000	      0.00000000	    -65.12126046	     -4.85101872	     -4.93434415	     89.72494053	    -21.89807690	     33.80406100	     65.22162346	     25.60673662	      0.00000000	      0.00000000	     89.62205819	    -12.39534286	     25.85632929	     65.43005508	     38.71644740	      0.00000000	      0.00000000
